<?xml version="1.0" standalone="no"?>
<!DOCTYPE svg PUBLIC "-//W3C//DTD SVG 20010904//EN"
 "http://www.w3.org/TR/2001/REC-SVG-20010904/DTD/svg10.dtd">
<svg version="1.0" xmlns="http://www.w3.org/2000/svg"
 width="890.000000pt" height="890.000000pt" viewBox="0 0 890.000000 890.000000"
 preserveAspectRatio="xMidYMid meet">
<metadata>
Created by potrace 1.11, written by Peter Selinger 2001-2013
</metadata>
<g transform="translate(0.000000,890.000000) scale(0.100000,-0.100000)"
fill="#000000" stroke="none">
<path d="M5710 8397 c-3 -3 -32 -7 -65 -10 -239 -23 -547 -129 -798 -273 l-80
-46 -76 17 c-154 35 -253 44 -431 41 -278 -5 -500 -49 -744 -147 -461 -185
-915 -590 -1214 -1080 -145 -238 -292 -588 -357 -849 -15 -58 -55 -241 -59
-270 -3 -19 -7 -44 -10 -55 -3 -17 -14 -93 -21 -145 -1 -8 -6 -58 -10 -110 -4
-52 -9 -106 -11 -120 -6 -43 -5 -392 1 -455 17 -177 33 -270 66 -395 93 -344
260 -621 504 -836 191 -168 398 -265 670 -313 89 -16 145 -19 290 -17 99 2
189 6 200 9 11 2 40 8 65 12 25 3 83 18 130 32 47 15 90 27 96 29 6 1 48 20
94 43 l82 40 -7 -56 c-3 -32 -8 -60 -10 -63 -1 -3 -6 -26 -9 -52 -4 -26 -8
-53 -11 -60 -2 -7 -7 -30 -10 -51 -12 -86 -70 -316 -117 -467 -24 -76 -98
-270 -103 -270 -2 0 -55 13 -118 30 -181 46 -297 62 -492 66 -193 4 -276 -6
-395 -46 -207 -69 -400 -242 -478 -427 -60 -141 -67 -336 -18 -473 60 -168
187 -297 371 -378 133 -58 268 -81 457 -80 344 4 645 118 916 347 40 34 77 61
82 59 11 -3 218 -172 325 -263 183 -157 474 -393 610 -494 83 -61 155 -114
160 -119 44 -33 316 -209 381 -245 152 -86 369 -174 474 -192 163 -28 233 -35
350 -36 149 0 242 15 348 58 211 84 434 278 566 492 l45 74 -24 46 c-46 85
-70 126 -110 183 l-40 57 -65 -4 c-309 -18 -444 -16 -570 10 -14 2 -50 10 -80
16 -91 18 -255 68 -455 139 -135 48 -334 139 -462 211 -103 58 -255 147 -409
240 -93 56 -179 107 -191 113 -13 6 -23 14 -23 19 0 4 -4 7 -9 7 -5 0 -76 40
-158 88 -81 49 -167 99 -190 112 -24 13 -43 27 -43 31 0 4 20 41 44 81 72 123
206 403 274 573 67 168 89 227 117 310 15 44 31 89 35 100 11 26 69 216 114
375 64 230 160 633 190 800 2 14 7 36 10 50 3 14 8 36 10 50 3 14 9 49 15 79
6 30 9 56 7 58 -3 4 -176 48 -228 58 -9 2 -74 17 -145 34 -261 63 -242 64
-294 -17 -122 -190 -304 -390 -436 -480 -192 -130 -402 -184 -573 -148 -218
46 -401 221 -496 473 -36 96 -74 258 -89 378 -4 28 -8 61 -10 75 -20 131 -27
623 -12 795 7 79 39 304 51 360 3 11 12 52 20 90 9 39 19 80 21 93 30 134 175
506 235 602 5 8 19 34 31 58 59 117 192 296 290 387 142 134 316 227 465 251
22 3 42 8 47 11 14 9 7 -15 -10 -28 -13 -11 -166 -201 -221 -274 -85 -113
-197 -315 -272 -490 -32 -75 -89 -258 -106 -340 -111 -530 -29 -998 218 -1245
122 -122 262 -173 478 -172 288 1 486 94 725 342 264 272 431 669 490 1159 13
107 13 458 0 536 -41 254 -120 442 -263 625 -28 36 -48 68 -44 71 11 10 174
66 239 83 183 47 420 61 565 32 134 -26 280 -94 407 -189 31 -23 67 -42 81
-42 59 1 171 213 211 398 14 66 21 57 -96 135 -61 41 -118 70 -200 103 -57 22
-136 42 -219 55 -21 3 -48 8 -60 11 -27 6 -420 15 -426 10z m-954 -939 c147
-158 214 -362 217 -658 2 -181 -8 -296 -39 -453 -9 -42 -17 -87 -19 -100 -3
-12 -18 -63 -34 -112 -124 -383 -310 -597 -531 -613 -58 -4 -76 -1 -112 18
-132 69 -192 247 -191 565 1 229 46 420 163 685 62 141 173 331 244 417 9 10
29 36 46 58 39 50 209 225 219 225 4 0 21 -15 37 -32z m-1561 -5349 c44 -11
89 -23 100 -28 11 -5 45 -19 75 -31 30 -11 75 -31 98 -44 l44 -22 -75 -70
c-175 -163 -366 -222 -531 -165 -109 38 -156 91 -156 176 0 98 71 174 177 191
21 3 40 8 43 10 10 11 151 0 225 -17z"/>
</g>
</svg>
